<svg xmlns="http://www.w3.org/2000/svg" viewBox="0 0 32 32"><defs><style>.cls-1{fill:#393;stroke:#fc0;stroke-miterlimit:10;}.cls-2{fill:#fc0;}</style></defs><g id="Layer_2" data-name="Layer 2"><g id="Background_and_Outline" data-name="Background and Outline"><polygon class="cls-1" points="0.5 5.5 3.5 5.5 3.5 0.5 13.5 0.5 13.5 5.5 18.5 5.5 18.5 0.5 28.5 0.52 28.5 5.5 31.5 5.5 31.5 16.5 27.5 16.43 27.5 20.5 23.5 20.5 23.46 26.5 19.5 26.5 19.5 31.5 12.5 31.5 12.5 26.5 8.5 26.5 8.5 20.5 4.5 20.5 4.5 16.5 0.5 16.5 0.5 5.5"/><path class="cls-2" d="M20,32H12V27H8V21H4V17H0V5H3V0H14V5h4V0L29,0V5h3V17l-4-.07V21H24L24,27H20Zm-7-1h6V26h4l0-6h4V15.92L31,16V6H28V1L19,1V6H13V1H4V6H1V16H5v4H9v6h4Z"/></g><g id="Lines_and_CPU_copy" data-name="Lines and CPU copy"><polygon class="cls-2" points="28 10 28 11 20 11 20 15 18 15 18 13 17 13 17 10 24 10 24 4 25 4 25 2 22 2 22 4 23 4 23 9 17 9 16 9 9 9 9 4 10 4 10 2 7 2 7 4 8 4 8 10 16 10 16 13 14 13 14 14 12 14 12 11 4 11 4 10 2 10 2 13 4 13 4 12 11 12 11 14 7 14 7 17 6 17 6 19 9 19 9 17 8 17 8 15 11 15 14 15 14 17 15 17 14.99 19 11 19 11 23 10 23 10 25 13 25 13 23 12 23 12 20 15 20 15 28 14 28 14 30 17 30 17 28 16 28 16 20 20 20 20 23 19 23 19 25 22 25 22 23 21 23 21 19 16 19 16 17 18 17 18 16 20 16 20 18 24 18 24 19 26 19 26 16 24 16 24 17 21 17 21 16 21 15 21 12 28 12 28 13 30 13 30 10 28 10"/></g></g></svg>